<svg width="734" height="179" viewBox="0 0 734 179" fill="none" xmlns="http://www.w3.org/2000/svg">
<path d="M694.203 117.92C685.883 117.92 678.843 116.427 673.083 113.44C667.429 110.347 662.949 105.867 659.643 99.9999L676.443 90.5599C678.256 93.7599 680.496 96.1066 683.162 97.5999C685.829 98.9866 689.136 99.6799 693.083 99.6799C695.536 99.6799 697.616 99.4132 699.323 98.8799C701.136 98.2399 702.522 97.3866 703.482 96.3199C704.549 95.1466 705.083 93.7599 705.083 92.1599C705.083 90.0266 704.016 88.4799 701.883 87.5199C699.749 86.4532 697.029 85.5999 693.722 84.9599C690.522 84.3199 687.056 83.5732 683.323 82.7199C679.589 81.8666 676.069 80.6399 672.763 79.0399C669.456 77.4399 666.736 75.1466 664.602 72.1599C662.576 69.0666 661.562 64.9599 661.562 59.8399C661.562 55.0399 662.843 50.7199 665.403 46.8799C668.069 43.0399 671.802 39.9999 676.602 37.7599C681.402 35.5199 687.056 34.3999 693.562 34.3999C699.323 34.3999 704.283 35.1999 708.443 36.7999C712.603 38.3999 716.069 40.4799 718.843 43.0399C721.723 45.5999 723.963 48.4266 725.562 51.5199L708.763 60.9599C707.589 58.0799 705.616 55.9466 702.843 54.5599C700.176 53.1732 697.242 52.4799 694.042 52.4799C692.229 52.4799 690.576 52.7999 689.083 53.4399C687.589 53.9732 686.416 54.7732 685.562 55.8399C684.709 56.7999 684.282 57.9732 684.282 59.3599C684.282 61.4932 685.296 63.1466 687.323 64.3199C689.456 65.3866 692.176 66.2399 695.482 66.8799C698.789 67.5199 702.309 68.2666 706.042 69.1199C709.776 69.9732 713.243 71.2532 716.443 72.9599C719.749 74.5599 722.469 76.8532 724.602 79.8399C726.736 82.8266 727.802 86.7732 727.802 91.6799C727.802 97.0132 726.256 101.653 723.162 105.6C720.069 109.44 715.963 112.48 710.843 114.72C705.723 116.853 700.176 117.92 694.203 117.92Z" fill="#F9F9F9"/>
<path d="M609.905 117.92C601.692 117.92 594.332 116.107 587.825 112.48C581.425 108.853 576.358 103.893 572.625 97.6C568.892 91.3067 567.025 84.16 567.025 76.16V0H589.745V60.16L578.705 62.08C578.705 57.1733 580.198 52.5867 583.185 48.32C586.278 44.0533 590.278 40.64 595.185 38.08C600.092 35.52 605.425 34.24 611.185 34.24C619.398 34.24 626.598 36 632.785 39.52C639.078 43.04 643.985 48 647.505 54.4C651.025 60.6933 652.785 67.9467 652.785 76.16C652.785 83.7333 650.918 90.72 647.185 97.12C643.452 103.413 638.332 108.48 631.825 112.32C625.425 116.053 618.118 117.92 609.905 117.92ZM609.905 96.48C613.852 96.48 617.318 95.5733 620.305 93.76C623.398 91.84 625.798 89.3333 627.505 86.24C629.212 83.1467 630.065 79.7867 630.065 76.16C630.065 72.4267 629.212 69.0133 627.505 65.92C625.798 62.72 623.398 60.2133 620.305 58.4C617.318 56.5867 613.852 55.68 609.905 55.68C606.065 55.68 602.598 56.5867 599.505 58.4C596.518 60.2133 594.118 62.72 592.305 65.92C590.598 69.0133 589.745 72.4267 589.745 76.16C589.745 79.7867 590.598 83.1467 592.305 86.24C594.118 89.3333 596.518 91.84 599.505 93.76C602.598 95.5733 606.065 96.48 609.905 96.48Z" fill="#F9F9F9"/>
<path d="M506.087 117.76C498.407 117.76 491.634 115.893 485.768 112.16C479.901 108.32 475.261 103.253 471.848 96.9601C468.541 90.5601 466.888 83.5201 466.888 75.8401C466.888 68.2667 468.754 61.3334 472.488 55.0401C476.328 48.6401 481.448 43.5734 487.848 39.8401C494.354 36.0001 501.661 34.0801 509.768 34.0801C517.981 34.0801 525.341 35.9467 531.848 39.6801C538.354 43.3068 543.474 48.2667 547.207 54.5601C550.941 60.7468 552.808 67.8401 552.808 75.8401V115.68H531.207V87.0401L538.087 85.1201C538.087 91.3068 536.754 96.9068 534.087 101.92C531.421 106.827 527.741 110.72 523.048 113.6C518.354 116.373 512.701 117.76 506.087 117.76ZM509.768 96.4801C513.714 96.4801 517.181 95.5734 520.168 93.7601C523.261 91.8401 525.661 89.3334 527.368 86.2401C529.181 83.1467 530.087 79.7334 530.087 76.0001C530.087 72.2667 529.181 68.8534 527.368 65.7601C525.661 62.6668 523.261 60.2134 520.168 58.4001C517.181 56.4801 513.714 55.5201 509.768 55.5201C505.928 55.5201 502.461 56.4801 499.367 58.4001C496.381 60.2134 493.981 62.6668 492.168 65.7601C490.461 68.8534 489.608 72.2667 489.608 76.0001C489.608 79.7334 490.461 83.1467 492.168 86.2401C493.981 89.3334 496.381 91.8401 499.367 93.7601C502.461 95.5734 505.928 96.4801 509.768 96.4801Z" fill="#F9F9F9"/>
<path d="M430.762 0H453.482V115.68H430.762V0Z" fill="#F9F9F9"/>
<path d="M326.269 117.76C318.589 117.76 311.815 115.893 305.949 112.16C300.082 108.32 295.442 103.253 292.029 96.9601C288.722 90.5601 287.069 83.5201 287.069 75.8401C287.069 68.2667 288.935 61.3334 292.669 55.0401C296.509 48.6401 301.629 43.5734 308.029 39.8401C314.535 36.0001 321.842 34.0801 329.949 34.0801C338.162 34.0801 345.522 35.9467 352.029 39.6801C358.535 43.3068 363.655 48.2667 367.389 54.5601C371.122 60.7468 372.989 67.8401 372.989 75.8401V115.68H351.389V87.0401L358.269 85.1201C358.269 91.3068 356.935 96.9068 354.269 101.92C351.602 106.827 347.922 110.72 343.229 113.6C338.535 116.373 332.882 117.76 326.269 117.76ZM329.949 96.4801C333.895 96.4801 337.362 95.5734 340.349 93.7601C343.442 91.8401 345.842 89.3334 347.549 86.2401C349.362 83.1467 350.269 79.7334 350.269 76.0001C350.269 72.2667 349.362 68.8534 347.549 65.7601C345.842 62.6668 343.442 60.2134 340.349 58.4001C337.362 56.4801 333.895 55.5201 329.949 55.5201C326.109 55.5201 322.642 56.4801 319.549 58.4001C316.562 60.2134 314.162 62.6668 312.349 65.7601C310.642 68.8534 309.789 72.2667 309.789 76.0001C309.789 79.7334 310.642 83.1467 312.349 86.2401C314.162 89.3334 316.562 91.8401 319.549 93.7601C322.642 95.5734 326.109 96.4801 329.949 96.4801Z" fill="#F9F9F9"/>
<path d="M257.651 115.68H234.931V70.2399C234.931 63.4132 236.211 57.3332 238.771 51.9999C241.331 46.5599 245.225 42.2932 250.451 39.1999C255.678 35.9999 262.185 34.3999 269.971 34.3999C272.638 34.3999 275.251 34.6666 277.811 35.1999C280.371 35.6266 282.665 36.2666 284.691 37.1199V59.1999C282.771 58.0266 280.691 57.1732 278.451 56.6399C276.211 56.1066 274.078 55.8399 272.051 55.8399C267.571 55.8399 264.051 57.2266 261.491 59.9999C258.931 62.6666 257.651 66.3466 257.651 71.0399V115.68Z" fill="#F9F9F9"/>
<path d="M132.594 117.92C129.714 117.92 126.834 117.28 123.954 116C121.18 114.827 118.727 113.013 116.594 110.56C114.567 108 113.074 104.853 112.114 101.12L96.9138 36.4801H118.194L131.954 96.8001C131.954 96.9067 131.954 97.0134 131.954 97.1201C132.06 97.1201 132.22 97.1201 132.434 97.1201C132.647 97.1201 132.754 97.1201 132.754 97.1201C132.86 97.0134 132.86 96.9601 132.754 96.9601L144.434 51.0401C146.034 45.3868 148.434 41.1734 151.634 38.4001C154.834 35.5201 158.887 34.0801 163.794 34.0801C168.807 34.0801 172.86 35.4667 175.954 38.2401C179.154 41.0134 181.447 45.1734 182.834 50.7201L194.514 96.9601C194.62 97.0667 194.674 97.1734 194.674 97.2801C194.674 97.2801 194.78 97.2801 194.994 97.2801C195.314 97.2801 195.474 97.2801 195.474 97.2801C195.474 97.1734 195.474 97.0134 195.474 96.8001L208.754 36.4801H229.714L215.154 101.12C214.3 104.853 212.807 108 210.674 110.56C208.647 113.013 206.194 114.827 203.314 116C200.54 117.28 197.714 117.92 194.834 117.92C190.247 117.92 186.247 116.533 182.834 113.76C179.527 110.987 177.18 106.773 175.794 101.12L163.954 53.9201C164.06 53.8134 163.954 53.7601 163.634 53.7601C163.42 53.7601 163.314 53.8134 163.314 53.9201C163.42 53.9201 163.474 53.9201 163.474 53.9201L151.634 101.12C150.247 106.773 147.847 110.987 144.434 113.76C141.127 116.533 137.18 117.92 132.594 117.92Z" fill="#F9F9F9"/>
<path d="M45.2 117.76C37.52 117.76 30.7467 115.893 24.88 112.16C19.0133 108.32 14.3733 103.253 10.96 96.9601C7.65333 90.5601 6 83.5201 6 75.8401C6 68.2667 7.86667 61.3334 11.6 55.0401C15.44 48.6401 20.56 43.5734 26.96 39.8401C33.4667 36.0001 40.7733 34.0801 48.88 34.0801C57.0933 34.0801 64.4533 35.9467 70.96 39.6801C77.4667 43.3068 82.5867 48.2667 86.32 54.5601C90.0533 60.7468 91.92 67.8401 91.92 75.8401V115.68H70.32V87.0401L77.2 85.1201C77.2 91.3068 75.8667 96.9068 73.2 101.92C70.5333 106.827 66.8533 110.72 62.16 113.6C57.4667 116.373 51.8133 117.76 45.2 117.76ZM48.88 96.4801C52.8267 96.4801 56.2933 95.5734 59.28 93.7601C62.3733 91.8401 64.7733 89.3334 66.48 86.2401C68.2933 83.1467 69.2 79.7334 69.2 76.0001C69.2 72.2667 68.2933 68.8534 66.48 65.7601C64.7733 62.6668 62.3733 60.2134 59.28 58.4001C56.2933 56.4801 52.8267 55.5201 48.88 55.5201C45.04 55.5201 41.5733 56.4801 38.48 58.4001C35.4933 60.2134 33.0933 62.6668 31.28 65.7601C29.5733 68.8534 28.72 72.2667 28.72 76.0001C28.72 79.7334 29.5733 83.1467 31.28 86.2401C33.0933 89.3334 35.4933 91.8401 38.48 93.7601C41.5733 95.5734 45.04 96.4801 48.88 96.4801Z" fill="#F9F9F9"/>
<path d="M34.0401 162.408V159.912H42.2321V162.408H34.0401ZM39.1921 144.36L33.6881 166.92H30.8081L36.3121 144.36H39.1921ZM39.2561 144.36L44.7601 166.92H41.9121L36.3761 144.36H39.2561ZM51.9631 161.224V156.456H54.8751V161.224H51.9631ZM51.9631 156.488C51.9631 155.293 52.2191 154.227 52.7311 153.288C53.2644 152.349 53.9684 151.613 54.8431 151.08C55.7391 150.525 56.7524 150.248 57.8831 150.248V152.776C56.9444 152.776 56.2084 153.096 55.6751 153.736C55.1418 154.376 54.8751 155.293 54.8751 156.488H51.9631ZM60.8591 155.56C60.7524 154.6 60.4111 153.896 59.8351 153.448C59.2804 153 58.6191 152.776 57.8511 152.776V150.248C58.8538 150.248 59.7604 150.451 60.5711 150.856C61.3818 151.261 62.0538 151.827 62.5871 152.552C63.1204 153.256 63.4511 154.077 63.5791 155.016L60.8591 155.56ZM51.9631 161.192H54.8751C54.8751 162.365 55.1418 163.283 55.6751 163.944C56.2084 164.584 56.9444 164.904 57.8831 164.904V167.432C56.7524 167.432 55.7391 167.165 54.8431 166.632C53.9684 166.077 53.2644 165.331 52.7311 164.392C52.2191 163.453 51.9631 162.387 51.9631 161.192ZM60.8591 162.12L63.5791 162.664C63.4511 163.581 63.1204 164.403 62.5871 165.128C62.0538 165.853 61.3818 166.419 60.5711 166.824C59.7604 167.229 58.8538 167.432 57.8511 167.432V164.904C58.6191 164.904 59.2804 164.68 59.8351 164.232C60.4111 163.763 60.7524 163.059 60.8591 162.12ZM70.4506 161.224V156.456H73.3626V161.224H70.4506ZM70.4506 156.488C70.4506 155.293 70.7066 154.227 71.2186 153.288C71.7519 152.349 72.4559 151.613 73.3306 151.08C74.2266 150.525 75.2399 150.248 76.3706 150.248V152.776C75.4319 152.776 74.6959 153.096 74.1626 153.736C73.6293 154.376 73.3626 155.293 73.3626 156.488H70.4506ZM79.3466 155.56C79.2399 154.6 78.8986 153.896 78.3226 153.448C77.7679 153 77.1066 152.776 76.3386 152.776V150.248C77.3413 150.248 78.2479 150.451 79.0586 150.856C79.8693 151.261 80.5413 151.827 81.0746 152.552C81.6079 153.256 81.9386 154.077 82.0666 155.016L79.3466 155.56ZM70.4506 161.192H73.3626C73.3626 162.365 73.6293 163.283 74.1626 163.944C74.6959 164.584 75.4319 164.904 76.3706 164.904V167.432C75.2399 167.432 74.2266 167.165 73.3306 166.632C72.4559 166.077 71.7519 165.331 71.2186 164.392C70.7066 163.453 70.4506 162.387 70.4506 161.192ZM79.3466 162.12L82.0666 162.664C81.9386 163.581 81.6079 164.403 81.0746 165.128C80.5413 165.853 79.8693 166.419 79.0586 166.824C78.2479 167.229 77.3413 167.432 76.3386 167.432V164.904C77.1066 164.904 77.7679 164.68 78.3226 164.232C78.8986 163.763 79.2399 163.059 79.3466 162.12ZM89.5461 159.72V157.64H100.458V159.72H89.5461ZM94.5061 167.432V164.904H94.6661V167.432H94.5061ZM88.6181 161.192V156.488H91.5301V161.192H88.6181ZM97.5461 157.64V155.976H100.458V157.64H97.5461ZM100.458 155.976H97.5461C97.5461 155.037 97.2581 154.269 96.6821 153.672C96.1274 153.075 95.4021 152.776 94.5061 152.776V150.28C95.6581 150.28 96.6714 150.525 97.5461 151.016C98.4421 151.507 99.1461 152.189 99.6581 153.064C100.191 153.917 100.458 154.888 100.458 155.976ZM97.6741 162.12L100.394 162.664C100.266 163.581 99.9354 164.403 99.4021 165.128C98.8688 165.853 98.1968 166.419 97.3861 166.824C96.5754 167.229 95.6688 167.432 94.6661 167.432V164.904C95.4341 164.904 96.0954 164.68 96.6501 164.232C97.2261 163.763 97.5674 163.059 97.6741 162.12ZM88.6181 156.52C88.6181 155.304 88.8741 154.237 89.3861 153.32C89.9194 152.381 90.6234 151.645 91.4981 151.112C92.3941 150.557 93.4074 150.28 94.5381 150.28V152.776C93.5994 152.776 92.8634 153.107 92.3301 153.768C91.7968 154.408 91.5301 155.325 91.5301 156.52H88.6181ZM88.6181 161.192H91.5301C91.5301 162.365 91.7968 163.283 92.3301 163.944C92.8634 164.584 93.5994 164.904 94.5381 164.904V167.432C93.4074 167.432 92.3941 167.165 91.4981 166.632C90.6234 166.077 89.9194 165.331 89.3861 164.392C88.8741 163.453 88.6181 162.387 88.6181 161.192ZM108.538 166.92V143.88H111.45V166.92H108.538ZM120.459 159.72V157.64H131.371V159.72H120.459ZM125.419 167.432V164.904H125.579V167.432H125.419ZM119.531 161.192V156.488H122.443V161.192H119.531ZM128.459 157.64V155.976H131.371V157.64H128.459ZM131.371 155.976H128.459C128.459 155.037 128.171 154.269 127.595 153.672C127.04 153.075 126.315 152.776 125.419 152.776V150.28C126.571 150.28 127.584 150.525 128.459 151.016C129.355 151.507 130.059 152.189 130.571 153.064C131.104 153.917 131.371 154.888 131.371 155.976ZM128.587 162.12L131.307 162.664C131.179 163.581 130.848 164.403 130.315 165.128C129.781 165.853 129.109 166.419 128.299 166.824C127.488 167.229 126.581 167.432 125.579 167.432V164.904C126.347 164.904 127.008 164.68 127.563 164.232C128.139 163.763 128.48 163.059 128.587 162.12ZM119.531 156.52C119.531 155.304 119.787 154.237 120.299 153.32C120.832 152.381 121.536 151.645 122.411 151.112C123.307 150.557 124.32 150.28 125.451 150.28V152.776C124.512 152.776 123.776 153.107 123.243 153.768C122.709 154.408 122.443 155.325 122.443 156.52H119.531ZM119.531 161.192H122.443C122.443 162.365 122.709 163.283 123.243 163.944C123.776 164.584 124.512 164.904 125.451 164.904V167.432C124.32 167.432 123.307 167.165 122.411 166.632C121.536 166.077 120.832 165.331 120.299 164.392C119.787 163.453 119.531 162.387 119.531 161.192ZM139.131 166.92V150.76H142.043V166.92H139.131ZM140.731 156.104C140.731 155.016 140.912 154.045 141.275 153.192C141.637 152.317 142.128 151.635 142.747 151.144C143.387 150.653 144.091 150.408 144.859 150.408L144.603 153.128C143.856 153.128 143.237 153.416 142.747 153.992C142.277 154.547 142.043 155.251 142.043 156.104H140.731ZM146.523 153.864C146.267 153.651 145.957 153.48 145.595 153.352C145.253 153.203 144.923 153.128 144.603 153.128L144.859 150.408C145.349 150.408 145.829 150.504 146.299 150.696C146.768 150.867 147.173 151.112 147.515 151.432L146.523 153.864ZM162.289 166.92V155.912H165.201V166.92H162.289ZM158.385 167.4L158.609 165C159.377 165 160.028 164.808 160.561 164.424C161.116 164.04 161.543 163.475 161.841 162.728C162.14 161.981 162.289 161.096 162.289 160.072L163.729 160.008C163.729 161.459 163.495 162.739 163.025 163.848C162.556 164.957 161.916 165.832 161.105 166.472C160.316 167.091 159.409 167.4 158.385 167.4ZM158.385 167.4C157.425 167.4 156.551 167.176 155.761 166.728C154.972 166.28 154.343 165.672 153.873 164.904C153.404 164.115 153.169 163.24 153.169 162.28L155.921 162.184C155.921 162.995 156.188 163.667 156.721 164.2C157.276 164.733 157.905 165 158.609 165L158.385 167.4ZM153.169 162.28C153.169 161.277 153.415 160.403 153.905 159.656C154.417 158.888 155.1 158.28 155.953 157.832C156.807 157.384 157.777 157.16 158.865 157.16L159.025 159.4C158.129 159.4 157.383 159.667 156.785 160.2C156.209 160.712 155.921 161.373 155.921 162.184L153.169 162.28ZM159.025 159.4L158.865 157.16H163.793V159.4H159.025ZM162.289 160.072V155.944H163.729V160.008L162.289 160.072ZM165.201 155.976H162.289C162.289 155.037 162.001 154.269 161.425 153.672C160.871 153.075 160.145 152.776 159.249 152.776V150.28C160.401 150.28 161.415 150.525 162.289 151.016C163.185 151.507 163.889 152.189 164.401 153.064C164.935 153.917 165.201 154.888 165.201 155.976ZM156.241 155.592L153.553 155.048C153.681 154.088 154.001 153.256 154.513 152.552C155.047 151.848 155.719 151.293 156.529 150.888C157.361 150.483 158.279 150.28 159.281 150.28V152.776C158.492 152.776 157.809 153.011 157.233 153.48C156.679 153.928 156.348 154.632 156.241 155.592ZM174.318 162.024V144.328L177.23 144.36V162.024H174.318ZM172.462 153.16V150.76H181.262V153.16H172.462ZM174.318 161.992H177.23C177.23 162.611 177.315 163.133 177.486 163.56C177.657 163.987 177.902 164.317 178.222 164.552C178.542 164.765 178.926 164.872 179.374 164.872L179.118 167.4C177.625 167.4 176.451 166.931 175.598 165.992C174.745 165.032 174.318 163.699 174.318 161.992ZM180.878 164.328L182.03 166.408C181.603 166.728 181.134 166.973 180.622 167.144C180.131 167.315 179.63 167.4 179.118 167.4L179.374 164.872C179.651 164.872 179.907 164.829 180.142 164.744C180.398 164.637 180.643 164.499 180.878 164.328ZM189.538 166.92V150.76H192.45V166.92H189.538ZM190.978 148.616C190.445 148.616 189.997 148.435 189.634 148.072C189.271 147.709 189.09 147.261 189.09 146.728C189.09 146.195 189.271 145.747 189.634 145.384C189.997 145 190.445 144.808 190.978 144.808C191.511 144.808 191.959 145 192.322 145.384C192.706 145.747 192.898 146.195 192.898 146.728C192.898 147.261 192.706 147.709 192.322 148.072C191.959 148.435 191.511 148.616 190.978 148.616ZM201.424 166.92V150.76H204.336V166.92H201.424ZM210.416 166.92V155.912H213.328V166.92H210.416ZM210.416 155.912C210.416 155.016 210.139 154.291 209.584 153.736C209.03 153.16 208.315 152.872 207.44 152.872L208.176 150.28C209.158 150.28 210.032 150.525 210.8 151.016C211.59 151.507 212.208 152.179 212.656 153.032C213.104 153.885 213.328 154.845 213.328 155.912H210.416ZM203.056 155.976C203.056 154.888 203.28 153.917 203.728 153.064C204.176 152.189 204.784 151.507 205.552 151.016C206.32 150.525 207.195 150.28 208.176 150.28L207.44 152.872C206.523 152.872 205.776 153.16 205.2 153.736C204.624 154.312 204.336 155.059 204.336 155.976H203.056ZM229.893 167.496V150.76H232.805V167.496H229.893ZM220.901 161.352V155.912H223.813V161.352H220.901ZM223.813 155.912H220.901C220.901 154.845 221.125 153.885 221.573 153.032C222.021 152.179 222.629 151.507 223.397 151.016C224.186 150.525 225.082 150.28 226.085 150.28L226.821 152.872C225.946 152.872 225.221 153.16 224.645 153.736C224.09 154.291 223.813 155.016 223.813 155.912ZM231.173 155.976H229.893C229.893 155.059 229.605 154.312 229.029 153.736C228.453 153.16 227.717 152.872 226.821 152.872L226.085 150.28C227.045 150.28 227.909 150.525 228.677 151.016C229.466 151.507 230.074 152.189 230.501 153.064C230.949 153.917 231.173 154.888 231.173 155.976ZM223.813 161.352C223.813 162.248 224.09 162.984 224.645 163.56C225.221 164.115 225.946 164.392 226.821 164.392L226.085 166.984C225.082 166.984 224.186 166.739 223.397 166.248C222.629 165.757 222.021 165.085 221.573 164.232C221.125 163.379 220.901 162.419 220.901 161.352H223.813ZM231.173 161.256C231.173 162.344 230.949 163.325 230.501 164.2C230.074 165.053 229.466 165.736 228.677 166.248C227.909 166.739 227.045 166.984 226.085 166.984L226.821 164.392C227.717 164.392 228.453 164.104 229.029 163.528C229.605 162.952 229.893 162.195 229.893 161.256H231.173ZM232.805 167.4C232.805 168.488 232.549 169.459 232.037 170.312C231.525 171.187 230.821 171.869 229.925 172.36C229.029 172.872 228.015 173.128 226.885 173.128V170.6C227.759 170.6 228.474 170.291 229.029 169.672C229.605 169.075 229.893 168.317 229.893 167.4H232.805ZM223.845 167.816C223.951 168.755 224.293 169.448 224.869 169.896C225.445 170.365 226.117 170.6 226.885 170.6V173.128C225.903 173.128 224.997 172.925 224.165 172.52C223.333 172.115 222.65 171.549 222.117 170.824C221.605 170.099 221.285 169.277 221.157 168.36L223.845 167.816ZM252.39 172.84L252.998 170.44C253.83 170.653 254.523 170.6 255.078 170.28C255.633 169.96 256.07 169.299 256.39 168.296H259.078C258.438 170.301 257.553 171.667 256.422 172.392C255.313 173.117 253.969 173.267 252.39 172.84ZM256.39 168.296L261.862 150.76H264.774L259.078 168.296H256.39ZM256.934 168.104L251.302 150.76H254.214L258.374 164.04L256.934 168.104ZM279.941 161.192V156.488H282.853V161.192H279.941ZM270.949 161.192V156.488H273.861V161.192H270.949ZM276.805 152.808V150.28H276.997V152.808H276.805ZM276.805 167.4V164.872H276.997V167.4H276.805ZM270.949 156.52C270.949 155.325 271.205 154.259 271.717 153.32C272.251 152.381 272.955 151.645 273.829 151.112C274.725 150.557 275.739 150.28 276.869 150.28V152.808C275.931 152.808 275.195 153.128 274.661 153.768C274.128 154.408 273.861 155.325 273.861 156.52H270.949ZM282.853 156.52H279.941C279.941 155.325 279.675 154.408 279.141 153.768C278.629 153.128 277.893 152.808 276.933 152.808V150.28C278.064 150.28 279.067 150.557 279.941 151.112C280.837 151.645 281.541 152.381 282.053 153.32C282.587 154.259 282.853 155.325 282.853 156.52ZM270.949 161.16H273.861C273.861 162.333 274.128 163.251 274.661 163.912C275.195 164.552 275.931 164.872 276.869 164.872V167.4C275.739 167.4 274.725 167.133 273.829 166.6C272.955 166.045 272.251 165.299 271.717 164.36C271.205 163.421 270.949 162.355 270.949 161.16ZM282.853 161.16C282.853 162.355 282.587 163.421 282.053 164.36C281.541 165.299 280.837 166.045 279.941 166.6C279.067 167.133 278.064 167.4 276.933 167.4V164.872C277.893 164.872 278.629 164.552 279.141 163.912C279.675 163.251 279.941 162.333 279.941 161.16H282.853ZM302.036 150.76V166.92H299.124V150.76H302.036ZM293.044 150.76V161.768H290.132V150.76H293.044ZM293.044 161.768C293.044 162.664 293.321 163.4 293.876 163.976C294.452 164.531 295.177 164.808 296.052 164.808L295.316 167.4C294.313 167.4 293.417 167.155 292.628 166.664C291.86 166.173 291.252 165.501 290.804 164.648C290.356 163.795 290.132 162.835 290.132 161.768H293.044ZM300.404 161.672C300.404 162.76 300.18 163.741 299.732 164.616C299.305 165.469 298.697 166.152 297.908 166.664C297.14 167.155 296.276 167.4 295.316 167.4L296.052 164.808C296.948 164.808 297.684 164.52 298.26 163.944C298.836 163.368 299.124 162.611 299.124 161.672H300.404ZM310.662 166.92V150.76H313.574V166.92H310.662ZM312.262 156.104C312.262 155.016 312.443 154.045 312.806 153.192C313.169 152.317 313.659 151.635 314.278 151.144C314.918 150.653 315.622 150.408 316.39 150.408L316.134 153.128C315.387 153.128 314.769 153.416 314.278 153.992C313.809 154.547 313.574 155.251 313.574 156.104H312.262ZM318.054 153.864C317.798 153.651 317.489 153.48 317.126 153.352C316.785 153.203 316.454 153.128 316.134 153.128L316.39 150.408C316.881 150.408 317.361 150.504 317.83 150.696C318.299 150.867 318.705 151.112 319.046 151.432L318.054 153.864ZM348.498 150.792H345.586V144.36H348.498V150.792ZM345.586 166.92V150.76H348.498V166.92H345.586ZM336.594 161.768V155.912H339.506V161.768H336.594ZM339.506 155.912H336.594C336.594 154.845 336.818 153.885 337.266 153.032C337.714 152.179 338.322 151.507 339.09 151.016C339.88 150.525 340.776 150.28 341.778 150.28L342.514 152.872C341.64 152.872 340.914 153.16 340.338 153.736C339.784 154.291 339.506 155.016 339.506 155.912ZM346.866 155.976H345.586C345.586 155.059 345.298 154.312 344.722 153.736C344.146 153.16 343.41 152.872 342.514 152.872L341.778 150.28C342.738 150.28 343.602 150.525 344.37 151.016C345.16 151.507 345.768 152.189 346.194 153.064C346.642 153.917 346.866 154.888 346.866 155.976ZM339.506 161.768C339.506 162.664 339.784 163.4 340.338 163.976C340.914 164.531 341.64 164.808 342.514 164.808L341.778 167.4C340.776 167.4 339.88 167.155 339.09 166.664C338.322 166.173 337.714 165.501 337.266 164.648C336.818 163.795 336.594 162.835 336.594 161.768H339.506ZM346.866 161.672C346.866 162.76 346.642 163.741 346.194 164.616C345.768 165.469 345.16 166.152 344.37 166.664C343.602 167.155 342.738 167.4 341.778 167.4L342.514 164.808C343.41 164.808 344.146 164.52 344.722 163.944C345.298 163.368 345.586 162.611 345.586 161.672H346.866ZM357.444 166.92V150.76H360.356V166.92H357.444ZM358.884 148.616C358.351 148.616 357.903 148.435 357.54 148.072C357.178 147.709 356.996 147.261 356.996 146.728C356.996 146.195 357.178 145.747 357.54 145.384C357.903 145 358.351 144.808 358.884 144.808C359.418 144.808 359.866 145 360.228 145.384C360.612 145.747 360.804 146.195 360.804 146.728C360.804 147.261 360.612 147.709 360.228 148.072C359.866 148.435 359.418 148.616 358.884 148.616ZM377.749 167.496V150.76H380.661V167.496H377.749ZM368.757 161.352V155.912H371.669V161.352H368.757ZM371.669 155.912H368.757C368.757 154.845 368.981 153.885 369.429 153.032C369.877 152.179 370.485 151.507 371.253 151.016C372.042 150.525 372.938 150.28 373.941 150.28L374.677 152.872C373.802 152.872 373.077 153.16 372.501 153.736C371.946 154.291 371.669 155.016 371.669 155.912ZM379.029 155.976H377.749C377.749 155.059 377.461 154.312 376.885 153.736C376.309 153.16 375.573 152.872 374.677 152.872L373.941 150.28C374.901 150.28 375.765 150.525 376.533 151.016C377.322 151.507 377.93 152.189 378.357 153.064C378.805 153.917 379.029 154.888 379.029 155.976ZM371.669 161.352C371.669 162.248 371.946 162.984 372.501 163.56C373.077 164.115 373.802 164.392 374.677 164.392L373.941 166.984C372.938 166.984 372.042 166.739 371.253 166.248C370.485 165.757 369.877 165.085 369.429 164.232C368.981 163.379 368.757 162.419 368.757 161.352H371.669ZM379.029 161.256C379.029 162.344 378.805 163.325 378.357 164.2C377.93 165.053 377.322 165.736 376.533 166.248C375.765 166.739 374.901 166.984 373.941 166.984L374.677 164.392C375.573 164.392 376.309 164.104 376.885 163.528C377.461 162.952 377.749 162.195 377.749 161.256H379.029ZM380.661 167.4C380.661 168.488 380.405 169.459 379.893 170.312C379.381 171.187 378.677 171.869 377.781 172.36C376.885 172.872 375.872 173.128 374.741 173.128V170.6C375.616 170.6 376.33 170.291 376.885 169.672C377.461 169.075 377.749 168.317 377.749 167.4H380.661ZM371.701 167.816C371.808 168.755 372.149 169.448 372.725 169.896C373.301 170.365 373.973 170.6 374.741 170.6V173.128C373.76 173.128 372.853 172.925 372.021 172.52C371.189 172.115 370.506 171.549 369.973 170.824C369.461 170.099 369.141 169.277 369.013 168.36L371.701 167.816ZM389.513 166.92V150.76H392.425V166.92H389.513ZM390.953 148.616C390.42 148.616 389.972 148.435 389.609 148.072C389.246 147.709 389.065 147.261 389.065 146.728C389.065 146.195 389.246 145.747 389.609 145.384C389.972 145 390.42 144.808 390.953 144.808C391.486 144.808 391.934 145 392.297 145.384C392.681 145.747 392.873 146.195 392.873 146.728C392.873 147.261 392.681 147.709 392.297 148.072C391.934 148.435 391.486 148.616 390.953 148.616ZM402.455 162.024V144.328L405.367 144.36V162.024H402.455ZM400.599 153.16V150.76H409.399V153.16H400.599ZM402.455 161.992H405.367C405.367 162.611 405.453 163.133 405.623 163.56C405.794 163.987 406.039 164.317 406.359 164.552C406.679 164.765 407.063 164.872 407.511 164.872L407.255 167.4C405.762 167.4 404.589 166.931 403.735 165.992C402.882 165.032 402.455 163.699 402.455 161.992ZM409.015 164.328L410.167 166.408C409.741 166.728 409.271 166.973 408.759 167.144C408.269 167.315 407.767 167.4 407.255 167.4L407.511 164.872C407.789 164.872 408.045 164.829 408.279 164.744C408.535 164.637 408.781 164.499 409.015 164.328ZM425.527 166.92V155.912H428.439V166.92H425.527ZM421.623 167.4L421.847 165C422.615 165 423.266 164.808 423.799 164.424C424.354 164.04 424.78 163.475 425.079 162.728C425.378 161.981 425.527 161.096 425.527 160.072L426.967 160.008C426.967 161.459 426.732 162.739 426.263 163.848C425.794 164.957 425.154 165.832 424.343 166.472C423.554 167.091 422.647 167.4 421.623 167.4ZM421.623 167.4C420.663 167.4 419.788 167.176 418.999 166.728C418.21 166.28 417.58 165.672 417.111 164.904C416.642 164.115 416.407 163.24 416.407 162.28L419.159 162.184C419.159 162.995 419.426 163.667 419.959 164.2C420.514 164.733 421.143 165 421.847 165L421.623 167.4ZM416.407 162.28C416.407 161.277 416.652 160.403 417.143 159.656C417.655 158.888 418.338 158.28 419.191 157.832C420.044 157.384 421.015 157.16 422.103 157.16L422.263 159.4C421.367 159.4 420.62 159.667 420.023 160.2C419.447 160.712 419.159 161.373 419.159 162.184L416.407 162.28ZM422.263 159.4L422.103 157.16H427.031V159.4H422.263ZM425.527 160.072V155.944H426.967V160.008L425.527 160.072ZM428.439 155.976H425.527C425.527 155.037 425.239 154.269 424.663 153.672C424.108 153.075 423.383 152.776 422.487 152.776V150.28C423.639 150.28 424.652 150.525 425.527 151.016C426.423 151.507 427.127 152.189 427.639 153.064C428.172 153.917 428.439 154.888 428.439 155.976ZM419.479 155.592L416.791 155.048C416.919 154.088 417.239 153.256 417.751 152.552C418.284 151.848 418.956 151.293 419.767 150.888C420.599 150.483 421.516 150.28 422.519 150.28V152.776C421.73 152.776 421.047 153.011 420.471 153.48C419.916 153.928 419.586 154.632 419.479 155.592ZM436.819 166.92V143.88H439.731V166.92H436.819ZM460.593 162.024V144.328L463.505 144.36V162.024H460.593ZM458.737 153.16V150.76H467.537V153.16H458.737ZM460.593 161.992H463.505C463.505 162.611 463.59 163.133 463.761 163.56C463.932 163.987 464.177 164.317 464.497 164.552C464.817 164.765 465.201 164.872 465.649 164.872L465.393 167.4C463.9 167.4 462.726 166.931 461.873 165.992C461.02 165.032 460.593 163.699 460.593 161.992ZM467.153 164.328L468.305 166.408C467.878 166.728 467.409 166.973 466.897 167.144C466.406 167.315 465.905 167.4 465.393 167.4L465.649 164.872C465.926 164.872 466.182 164.829 466.417 164.744C466.673 164.637 466.918 164.499 467.153 164.328ZM475.493 166.92V150.76H478.405V166.92H475.493ZM477.093 156.104C477.093 155.016 477.274 154.045 477.637 153.192C478 152.317 478.49 151.635 479.109 151.144C479.749 150.653 480.453 150.408 481.221 150.408L480.965 153.128C480.218 153.128 479.6 153.416 479.109 153.992C478.64 154.547 478.405 155.251 478.405 156.104H477.093ZM482.885 153.864C482.629 153.651 482.32 153.48 481.957 153.352C481.616 153.203 481.285 153.128 480.965 153.128L481.221 150.408C481.712 150.408 482.192 150.504 482.661 150.696C483.13 150.867 483.536 151.112 483.877 151.432L482.885 153.864ZM498.652 166.92V155.912H501.564V166.92H498.652ZM494.748 167.4L494.972 165C495.74 165 496.391 164.808 496.924 164.424C497.479 164.04 497.905 163.475 498.204 162.728C498.503 161.981 498.652 161.096 498.652 160.072L500.092 160.008C500.092 161.459 499.857 162.739 499.388 163.848C498.919 164.957 498.279 165.832 497.468 166.472C496.679 167.091 495.772 167.4 494.748 167.4ZM494.748 167.4C493.788 167.4 492.913 167.176 492.124 166.728C491.335 166.28 490.705 165.672 490.236 164.904C489.767 164.115 489.532 163.24 489.532 162.28L492.284 162.184C492.284 162.995 492.551 163.667 493.084 164.2C493.639 164.733 494.268 165 494.972 165L494.748 167.4ZM489.532 162.28C489.532 161.277 489.777 160.403 490.268 159.656C490.78 158.888 491.463 158.28 492.316 157.832C493.169 157.384 494.14 157.16 495.228 157.16L495.388 159.4C494.492 159.4 493.745 159.667 493.148 160.2C492.572 160.712 492.284 161.373 492.284 162.184L489.532 162.28ZM495.388 159.4L495.228 157.16H500.156V159.4H495.388ZM498.652 160.072V155.944H500.092V160.008L498.652 160.072ZM501.564 155.976H498.652C498.652 155.037 498.364 154.269 497.788 153.672C497.233 153.075 496.508 152.776 495.612 152.776V150.28C496.764 150.28 497.777 150.525 498.652 151.016C499.548 151.507 500.252 152.189 500.764 153.064C501.297 153.917 501.564 154.888 501.564 155.976ZM492.604 155.592L489.916 155.048C490.044 154.088 490.364 153.256 490.876 152.552C491.409 151.848 492.081 151.293 492.892 150.888C493.724 150.483 494.641 150.28 495.644 150.28V152.776C494.855 152.776 494.172 153.011 493.596 153.48C493.041 153.928 492.711 154.632 492.604 155.592ZM509.624 166.92V150.76H512.536V166.92H509.624ZM518.616 166.92V155.912H521.528V166.92H518.616ZM518.616 155.912C518.616 155.016 518.339 154.291 517.784 153.736C517.23 153.16 516.515 152.872 515.64 152.872L516.376 150.28C517.358 150.28 518.232 150.525 519 151.016C519.79 151.507 520.408 152.179 520.856 153.032C521.304 153.885 521.528 154.845 521.528 155.912H518.616ZM511.256 155.976C511.256 154.888 511.48 153.917 511.928 153.064C512.376 152.189 512.984 151.507 513.752 151.016C514.52 150.525 515.395 150.28 516.376 150.28L515.64 152.872C514.723 152.872 513.976 153.16 513.4 153.736C512.824 154.312 512.536 155.059 512.536 155.976H511.256ZM537.229 162.76C537.229 162.227 537.037 161.789 536.653 161.448C536.269 161.085 535.767 160.765 535.149 160.488C534.551 160.189 533.911 159.891 533.229 159.592C532.567 159.293 531.927 158.952 531.309 158.568C530.711 158.163 530.221 157.661 529.837 157.064C529.453 156.445 529.261 155.699 529.261 154.824C529.261 154.824 529.346 154.824 529.517 154.824C529.709 154.824 529.943 154.824 530.221 154.824C530.519 154.824 530.807 154.824 531.085 154.824C531.362 154.824 531.597 154.824 531.789 154.824C531.981 154.824 532.077 154.824 532.077 154.824C532.077 155.357 532.269 155.805 532.653 156.168C533.037 156.509 533.527 156.819 534.125 157.096C534.743 157.373 535.394 157.672 536.077 157.992C536.759 158.291 537.399 158.643 537.997 159.048C538.594 159.453 539.085 159.955 539.469 160.552C539.874 161.128 540.077 161.864 540.077 162.76C540.077 162.76 539.981 162.76 539.789 162.76C539.597 162.76 539.351 162.76 539.053 162.76C538.775 162.76 538.498 162.76 538.221 162.76C537.943 162.76 537.709 162.76 537.517 162.76C537.325 162.76 537.229 162.76 537.229 162.76ZM534.509 167.4V164.872C535.298 164.872 535.949 164.68 536.461 164.296C536.973 163.891 537.229 163.379 537.229 162.76H540.077C540.077 163.656 539.831 164.456 539.341 165.16C538.871 165.864 538.221 166.419 537.389 166.824C536.557 167.208 535.597 167.4 534.509 167.4ZM529.261 154.824C529.261 153.949 529.474 153.171 529.901 152.488C530.349 151.784 530.967 151.24 531.757 150.856C532.546 150.451 533.421 150.248 534.381 150.248V152.776C533.719 152.776 533.165 152.968 532.717 153.352C532.29 153.736 532.077 154.227 532.077 154.824H529.261ZM531.469 162.088C531.575 163.027 531.917 163.731 532.493 164.2C533.069 164.648 533.741 164.872 534.509 164.872V167.4C533.527 167.4 532.621 167.197 531.789 166.792C530.957 166.387 530.274 165.821 529.741 165.096C529.229 164.371 528.909 163.549 528.781 162.632L531.469 162.088ZM537.389 155.56C537.282 154.6 536.941 153.896 536.365 153.448C535.81 153 535.149 152.776 534.381 152.776V150.248C535.383 150.248 536.29 150.451 537.101 150.856C537.911 151.261 538.583 151.827 539.117 152.552C539.65 153.256 539.981 154.077 540.109 155.016L537.389 155.56ZM548.585 166.92V149.256H551.497V166.92H548.585ZM546.729 153.16V150.76H555.433V153.16H546.729ZM548.585 149.256C548.585 147.571 549.012 146.259 549.865 145.32C550.719 144.36 551.892 143.88 553.385 143.88L553.641 146.376C553.193 146.376 552.809 146.493 552.489 146.728C552.169 146.963 551.924 147.293 551.753 147.72C551.583 148.147 551.497 148.659 551.497 149.256H548.585ZM555.145 146.92C554.911 146.749 554.665 146.621 554.409 146.536C554.175 146.429 553.919 146.376 553.641 146.376L553.385 143.88C553.897 143.88 554.399 143.955 554.889 144.104C555.401 144.253 555.871 144.509 556.297 144.872L555.145 146.92ZM570.31 161.192V156.488H573.222V161.192H570.31ZM561.318 161.192V156.488H564.23V161.192H561.318ZM567.174 152.808V150.28H567.366V152.808H567.174ZM567.174 167.4V164.872H567.366V167.4H567.174ZM561.318 156.52C561.318 155.325 561.574 154.259 562.086 153.32C562.619 152.381 563.323 151.645 564.198 151.112C565.094 150.557 566.107 150.28 567.238 150.28V152.808C566.299 152.808 565.563 153.128 565.03 153.768C564.497 154.408 564.23 155.325 564.23 156.52H561.318ZM573.222 156.52H570.31C570.31 155.325 570.043 154.408 569.51 153.768C568.998 153.128 568.262 152.808 567.302 152.808V150.28C568.433 150.28 569.435 150.557 570.31 151.112C571.206 151.645 571.91 152.381 572.422 153.32C572.955 154.259 573.222 155.325 573.222 156.52ZM561.318 161.16H564.23C564.23 162.333 564.497 163.251 565.03 163.912C565.563 164.552 566.299 164.872 567.238 164.872V167.4C566.107 167.4 565.094 167.133 564.198 166.6C563.323 166.045 562.619 165.299 562.086 164.36C561.574 163.421 561.318 162.355 561.318 161.16ZM573.222 161.16C573.222 162.355 572.955 163.421 572.422 164.36C571.91 165.299 571.206 166.045 570.31 166.6C569.435 167.133 568.433 167.4 567.302 167.4V164.872C568.262 164.872 568.998 164.552 569.51 163.912C570.043 163.251 570.31 162.333 570.31 161.16H573.222ZM580.981 166.92V150.76H583.893V166.92H580.981ZM582.581 156.104C582.581 155.016 582.762 154.045 583.125 153.192C583.487 152.317 583.978 151.635 584.597 151.144C585.237 150.653 585.941 150.408 586.709 150.408L586.453 153.128C585.706 153.128 585.087 153.416 584.597 153.992C584.127 154.547 583.893 155.251 583.893 156.104H582.581ZM588.373 153.864C588.117 153.651 587.807 153.48 587.445 153.352C587.103 153.203 586.773 153.128 586.453 153.128L586.709 150.408C587.199 150.408 587.679 150.504 588.149 150.696C588.618 150.867 589.023 151.112 589.365 151.432L588.373 153.864ZM596.437 166.92V150.76H599.349V166.92H596.437ZM604.789 166.92V155.912H607.701V166.92H604.789ZM598.037 155.976C598.037 154.888 598.24 153.917 598.645 153.064C599.072 152.189 599.648 151.507 600.373 151.016C601.098 150.525 601.909 150.28 602.805 150.28L602.069 152.872C601.301 152.872 600.65 153.16 600.117 153.736C599.605 154.312 599.349 155.059 599.349 155.976H598.037ZM604.789 155.912C604.789 155.016 604.533 154.291 604.021 153.736C603.509 153.16 602.858 152.872 602.069 152.872L602.805 150.28C603.744 150.28 604.576 150.525 605.301 151.016C606.048 151.507 606.634 152.179 607.061 153.032C607.488 153.864 607.701 154.824 607.701 155.912H604.789ZM613.109 166.92V155.912H616.021V166.92H613.109ZM606.389 155.976C606.389 154.888 606.592 153.917 606.997 153.064C607.424 152.189 607.989 151.507 608.693 151.016C609.418 150.525 610.229 150.28 611.125 150.28L610.389 152.872C609.621 152.872 608.981 153.16 608.469 153.736C607.957 154.312 607.701 155.059 607.701 155.976H606.389ZM613.109 155.912C613.109 155.016 612.853 154.291 612.341 153.736C611.85 153.16 611.2 152.872 610.389 152.872L611.125 150.28C612.064 150.28 612.896 150.525 613.621 151.016C614.368 151.507 614.954 152.179 615.381 153.032C615.808 153.864 616.021 154.824 616.021 155.912H613.109ZM632.721 166.92V155.912H635.633V166.92H632.721ZM628.817 167.4L629.041 165C629.809 165 630.459 164.808 630.993 164.424C631.547 164.04 631.974 163.475 632.273 162.728C632.571 161.981 632.721 161.096 632.721 160.072L634.161 160.008C634.161 161.459 633.926 162.739 633.457 163.848C632.987 164.957 632.347 165.832 631.537 166.472C630.747 167.091 629.841 167.4 628.817 167.4ZM628.817 167.4C627.857 167.4 626.982 167.176 626.193 166.728C625.403 166.28 624.774 165.672 624.305 164.904C623.835 164.115 623.601 163.24 623.601 162.28L626.353 162.184C626.353 162.995 626.619 163.667 627.153 164.2C627.707 164.733 628.337 165 629.041 165L628.817 167.4ZM623.601 162.28C623.601 161.277 623.846 160.403 624.337 159.656C624.849 158.888 625.531 158.28 626.385 157.832C627.238 157.384 628.209 157.16 629.297 157.16L629.457 159.4C628.561 159.4 627.814 159.667 627.217 160.2C626.641 160.712 626.353 161.373 626.353 162.184L623.601 162.28ZM629.457 159.4L629.297 157.16H634.225V159.4H629.457ZM632.721 160.072V155.944H634.161V160.008L632.721 160.072ZM635.633 155.976H632.721C632.721 155.037 632.433 154.269 631.857 153.672C631.302 153.075 630.577 152.776 629.681 152.776V150.28C630.833 150.28 631.846 150.525 632.721 151.016C633.617 151.507 634.321 152.189 634.833 153.064C635.366 153.917 635.633 154.888 635.633 155.976ZM626.673 155.592L623.985 155.048C624.113 154.088 624.433 153.256 624.945 152.552C625.478 151.848 626.15 151.293 626.961 150.888C627.793 150.483 628.71 150.28 629.713 150.28V152.776C628.923 152.776 628.241 153.011 627.665 153.48C627.11 153.928 626.779 154.632 626.673 155.592ZM644.749 162.024V144.328L647.661 144.36V162.024H644.749ZM642.893 153.16V150.76H651.693V153.16H642.893ZM644.749 161.992H647.661C647.661 162.611 647.746 163.133 647.917 163.56C648.088 163.987 648.333 164.317 648.653 164.552C648.973 164.765 649.357 164.872 649.805 164.872L649.549 167.4C648.056 167.4 646.882 166.931 646.029 165.992C645.176 165.032 644.749 163.699 644.749 161.992ZM651.309 164.328L652.461 166.408C652.034 166.728 651.565 166.973 651.053 167.144C650.562 167.315 650.061 167.4 649.549 167.4L649.805 164.872C650.082 164.872 650.338 164.829 650.573 164.744C650.829 164.637 651.074 164.499 651.309 164.328ZM659.969 166.92V150.76H662.881V166.92H659.969ZM661.409 148.616C660.876 148.616 660.428 148.435 660.065 148.072C659.703 147.709 659.521 147.261 659.521 146.728C659.521 146.195 659.703 145.747 660.065 145.384C660.428 145 660.876 144.808 661.409 144.808C661.943 144.808 662.391 145 662.753 145.384C663.137 145.747 663.329 146.195 663.329 146.728C663.329 147.261 663.137 147.709 662.753 148.072C662.391 148.435 661.943 148.616 661.409 148.616ZM679.954 161.192V156.488H682.866V161.192H679.954ZM670.962 161.192V156.488H673.874V161.192H670.962ZM676.818 152.808V150.28H677.01V152.808H676.818ZM676.818 167.4V164.872H677.01V167.4H676.818ZM670.962 156.52C670.962 155.325 671.218 154.259 671.73 153.32C672.263 152.381 672.967 151.645 673.842 151.112C674.738 150.557 675.751 150.28 676.882 150.28V152.808C675.943 152.808 675.207 153.128 674.674 153.768C674.141 154.408 673.874 155.325 673.874 156.52H670.962ZM682.866 156.52H679.954C679.954 155.325 679.687 154.408 679.154 153.768C678.642 153.128 677.906 152.808 676.946 152.808V150.28C678.077 150.28 679.079 150.557 679.954 151.112C680.85 151.645 681.554 152.381 682.066 153.32C682.599 154.259 682.866 155.325 682.866 156.52ZM670.962 161.16H673.874C673.874 162.333 674.141 163.251 674.674 163.912C675.207 164.552 675.943 164.872 676.882 164.872V167.4C675.751 167.4 674.738 167.133 673.842 166.6C672.967 166.045 672.263 165.299 671.73 164.36C671.218 163.421 670.962 162.355 670.962 161.16ZM682.866 161.16C682.866 162.355 682.599 163.421 682.066 164.36C681.554 165.299 680.85 166.045 679.954 166.6C679.079 167.133 678.077 167.4 676.946 167.4V164.872C677.906 164.872 678.642 164.552 679.154 163.912C679.687 163.251 679.954 162.333 679.954 161.16H682.866ZM690.624 166.92V150.76H693.536V166.92H690.624ZM699.616 166.92V155.912H702.528V166.92H699.616ZM699.616 155.912C699.616 155.016 699.339 154.291 698.784 153.736C698.23 153.16 697.515 152.872 696.64 152.872L697.376 150.28C698.358 150.28 699.232 150.525 700 151.016C700.79 151.507 701.408 152.179 701.856 153.032C702.304 153.885 702.528 154.845 702.528 155.912H699.616ZM692.256 155.976C692.256 154.888 692.48 153.917 692.928 153.064C693.376 152.189 693.984 151.507 694.752 151.016C695.52 150.525 696.395 150.28 697.376 150.28L696.64 152.872C695.723 152.872 694.976 153.16 694.4 153.736C693.824 154.312 693.536 155.059 693.536 155.976H692.256Z" fill="#F9F9F9"/>
</svg>
